<svg width="500" height="500" viewBox="0 0 500 500" fill="none" xmlns="http://www.w3.org/2000/svg">
<g clip-path="url(#clip0)">
<rect width="500" height="500" fill="white"/>
<g clip-path="url(#clip1)">
<path d="M76.6217 423.877C131.641 423.877 176.243 420.489 176.243 416.31C176.243 412.132 131.641 408.744 76.6217 408.744C21.6021 408.744 -23 412.132 -23 416.31C-23 420.489 21.6021 423.877 76.6217 423.877Z" fill="#E6E6E6"/>
<path d="M53.1489 153.188C70.4861 145.814 92.0798 150.486 113.168 153.729C113.365 149.802 115.743 145.022 113.252 142.283C110.224 138.954 110.503 135.457 112.325 131.94C116.983 122.946 110.309 113.375 103.57 105.417C102.052 103.628 100.132 102.222 97.9678 101.313C95.8035 100.405 93.4555 100.02 91.1144 100.189L78.6317 101.081C75.5942 101.298 72.6954 102.437 70.3231 104.347C67.9509 106.256 66.2184 108.845 65.3575 111.766V111.766C62.3769 115.82 60.7816 119.862 61.786 123.883C57.3215 126.934 56.5714 130.617 58.5776 134.769C60.2787 137.383 60.2606 139.928 58.5002 142.402C56.1882 145.556 54.4175 149.073 53.2605 152.809L53.1489 153.188Z" fill="#2F2E41"/>
<path d="M465.152 376.733H111.799C108.657 376.733 105.643 375.484 103.421 373.263C101.199 371.041 99.9509 368.027 99.9509 364.885C228.041 349.998 353.724 349.998 477 364.885C477 368.027 475.752 371.041 473.53 373.263C471.308 375.484 468.294 376.733 465.152 376.733Z" fill="#2F2E41"/>
<path d="M477 365.582L99.9509 364.885L143.65 291.357L143.859 291.008V128.961C143.859 126.994 144.246 125.046 144.998 123.229C145.751 121.412 146.854 119.761 148.245 118.37C149.636 116.979 151.287 115.876 153.104 115.123C154.922 114.371 156.869 113.983 158.836 113.983H416.024C417.991 113.983 419.939 114.371 421.756 115.123C423.573 115.876 425.224 116.979 426.615 118.37C428.006 119.761 429.109 121.412 429.862 123.229C430.614 125.046 431.002 126.994 431.001 128.961V292.123L477 365.582Z" fill="#3F3D56"/>
<path d="M158.494 124.438C157.201 124.439 155.961 124.953 155.046 125.868C154.132 126.783 153.617 128.023 153.616 129.316V277.069C153.617 278.363 154.132 279.603 155.046 280.517C155.961 281.432 157.201 281.946 158.494 281.948H418.456C419.75 281.946 420.99 281.432 421.904 280.517C422.819 279.603 423.333 278.363 423.335 277.069V129.316C423.333 128.023 422.819 126.783 421.904 125.868C420.99 124.953 419.75 124.439 418.456 124.438H158.494Z" fill="white"/>
<path d="M159.584 301.463C159.184 301.464 158.793 301.579 158.456 301.794C158.12 302.01 157.852 302.317 157.684 302.68L144.219 331.952C144.073 332.27 144.009 332.621 144.033 332.97C144.057 333.32 144.169 333.658 144.358 333.954C144.547 334.249 144.808 334.492 145.115 334.66C145.423 334.828 145.768 334.916 146.119 334.916H429.279C429.635 334.916 429.986 334.825 430.297 334.652C430.608 334.478 430.87 334.228 431.057 333.925C431.245 333.622 431.351 333.276 431.367 332.919C431.383 332.563 431.308 332.209 431.148 331.89L416.512 302.619C416.34 302.271 416.073 301.978 415.743 301.774C415.412 301.569 415.031 301.462 414.643 301.463H159.584Z" fill="#2F2E41"/>
<path d="M287.43 121.999C289.162 121.999 290.566 120.595 290.566 118.863C290.566 117.131 289.162 115.727 287.43 115.727C285.698 115.727 284.294 117.131 284.294 118.863C284.294 120.595 285.698 121.999 287.43 121.999Z" fill="white"/>
<path d="M259.598 340.492C259.138 340.493 258.691 340.645 258.327 340.924C257.962 341.204 257.699 341.596 257.579 342.039L254.201 354.584C254.118 354.894 254.107 355.219 254.169 355.534C254.231 355.849 254.365 356.145 254.561 356.4C254.756 356.655 255.007 356.861 255.295 357.003C255.583 357.145 255.899 357.219 256.22 357.219H320.453C320.787 357.219 321.115 357.139 321.411 356.987C321.708 356.834 321.963 356.612 322.156 356.341C322.35 356.069 322.475 355.755 322.523 355.425C322.57 355.096 322.538 354.759 322.429 354.444L318.086 341.899C317.944 341.488 317.677 341.132 317.323 340.88C316.969 340.628 316.545 340.492 316.11 340.492H259.598Z" fill="#2F2E41"/>
<path d="M431.001 288.569V291.357H143.649L143.866 291.009V288.569H431.001Z" fill="#2F2E41"/>
<path d="M422.986 173.573C449.93 173.573 471.773 151.73 471.773 124.786C471.773 97.8424 449.93 76 422.986 76C396.042 76 374.2 97.8424 374.2 124.786C374.2 151.73 396.042 173.573 422.986 173.573Z" fill="#6C63FF"/>
<path d="M443.198 146.043H402.775C402.036 146.042 401.327 145.748 400.805 145.226C400.282 144.703 399.988 143.994 399.987 143.255V118.862C399.988 118.123 400.282 117.414 400.805 116.892C401.327 116.369 402.036 116.075 402.775 116.074H443.198C443.937 116.075 444.646 116.369 445.169 116.892C445.691 117.414 445.985 118.123 445.986 118.862V143.255C445.985 143.994 445.691 144.703 445.169 145.226C444.646 145.748 443.937 146.042 443.198 146.043ZM402.775 118.862V143.255H443.2L443.198 118.862L402.775 118.862Z" fill="white"/>
<path d="M435.532 118.863H410.441V107.711C410.441 99.6346 415.718 93.7725 422.986 93.7725C430.255 93.7725 435.532 99.6346 435.532 107.711L435.532 118.863ZM413.229 116.075H432.744V107.711C432.744 101.146 428.732 96.5603 422.987 96.5603C417.241 96.5603 413.229 101.146 413.229 107.711L413.229 116.075Z" fill="white"/>
<path d="M422.987 133.15C424.526 133.15 425.774 131.902 425.774 130.362C425.774 128.822 424.526 127.574 422.987 127.574C421.447 127.574 420.199 128.822 420.199 130.362C420.199 131.902 421.447 133.15 422.987 133.15Z" fill="white"/>
<path d="M388.929 231.831H188.022C187.035 231.83 186.089 231.438 185.392 230.74C184.695 230.043 184.302 229.097 184.301 228.111V178.274C184.302 177.288 184.695 176.342 185.392 175.645C186.089 174.947 187.035 174.555 188.022 174.554H388.929C389.916 174.555 390.861 174.947 391.559 175.645C392.256 176.342 392.649 177.288 392.65 178.274V228.111C392.649 229.097 392.256 230.043 391.559 230.74C390.861 231.438 389.916 231.83 388.929 231.831V231.831ZM188.022 176.042C187.43 176.043 186.862 176.278 186.444 176.696C186.025 177.115 185.79 177.682 185.789 178.274V228.111C185.79 228.703 186.025 229.27 186.444 229.689C186.862 230.107 187.43 230.343 188.022 230.343H388.929C389.521 230.343 390.089 230.107 390.507 229.689C390.926 229.27 391.161 228.703 391.162 228.111V178.274C391.161 177.682 390.926 177.115 390.507 176.696C390.089 176.278 389.521 176.043 388.929 176.042L188.022 176.042Z" fill="#E6E6E6"/>
<path d="M219.238 216.436C227.609 216.436 234.394 209.65 234.394 201.28C234.394 192.91 227.609 186.125 219.238 186.125C210.868 186.125 204.083 192.91 204.083 201.28C204.083 209.65 210.868 216.436 219.238 216.436Z" fill="#E6E6E6"/>
<path d="M254.24 191.178C253.908 191.177 253.579 191.242 253.272 191.369C252.966 191.496 252.687 191.682 252.452 191.916C252.217 192.151 252.03 192.429 251.903 192.736C251.776 193.043 251.71 193.372 251.71 193.704C251.71 194.036 251.776 194.364 251.903 194.671C252.03 194.978 252.217 195.257 252.452 195.491C252.687 195.726 252.966 195.912 253.272 196.038C253.579 196.165 253.908 196.23 254.24 196.23H373.318C373.988 196.23 374.631 195.963 375.104 195.49C375.578 195.016 375.844 194.374 375.844 193.704C375.844 193.034 375.578 192.391 375.104 191.918C374.631 191.444 373.988 191.178 373.318 191.178H254.24Z" fill="#E6E6E6"/>
<path d="M254.24 206.332C253.57 206.332 252.928 206.598 252.454 207.072C251.98 207.546 251.714 208.188 251.714 208.858C251.714 209.528 251.98 210.17 252.454 210.644C252.928 211.118 253.57 211.384 254.24 211.384H305.48C306.15 211.384 306.792 211.118 307.266 210.644C307.74 210.17 308.006 209.528 308.006 208.858C308.006 208.188 307.74 207.546 307.266 207.072C306.792 206.598 306.15 206.332 305.48 206.332H254.24Z" fill="#E6E6E6"/>
<path d="M143.155 207.354L106.016 227.099L105.546 210.645C117.668 208.622 129.201 205.098 139.864 199.362L143.749 189.766C144.172 188.72 144.86 187.802 145.745 187.103C146.63 186.403 147.682 185.946 148.797 185.776C149.912 185.605 151.052 185.728 152.106 186.132C153.159 186.535 154.09 187.206 154.806 188.077V188.077C155.853 189.353 156.377 190.979 156.271 192.626C156.164 194.273 155.436 195.818 154.233 196.948L143.155 207.354Z" fill="#FFB8B8"/>
<path d="M52.4089 321.355C52.1379 320.362 52.0804 319.322 52.2401 318.304C52.3998 317.287 52.773 316.315 53.3353 315.452L61.4937 302.931C63.4234 299.969 66.3843 297.83 69.802 296.929C73.2197 296.027 76.8505 296.427 79.9899 298.051V298.051C76.5612 303.888 77.0392 309.008 81.1741 313.457C74.7551 316.591 68.8224 320.635 63.5599 325.465C62.5992 326.12 61.4959 326.536 60.3419 326.678C59.1879 326.82 58.0166 326.685 56.9257 326.283C55.8347 325.881 54.8556 325.224 54.0699 324.367C53.2842 323.509 52.7147 322.477 52.4089 321.355V321.355Z" fill="#2F2E41"/>
<path d="M144.847 304.984C143.612 307.042 141.869 308.748 139.786 309.938C137.702 311.128 135.348 311.763 132.948 311.781L78.7488 312.191L76.3982 298.558L100.374 291.506L80.1591 275.992L102.255 250.136L142.387 287.541C144.733 289.727 146.257 292.652 146.704 295.827C147.152 299.002 146.496 302.235 144.847 304.984V304.984Z" fill="#2F2E41"/>
<path d="M70.2865 398.223H57.5933C46.1967 320.104 34.596 241.766 68.8762 212.526L109.306 219.108L104.135 253.427L81.5694 279.283L70.2865 398.223Z" fill="#2F2E41"/>
<path d="M81.4446 415.919C80.4509 416.19 79.4111 416.248 78.3936 416.088C77.3761 415.929 76.4039 415.556 75.5409 414.993L61.7588 413.141C58.7972 411.211 56.658 408.251 55.7561 404.833C54.8542 401.415 55.254 397.785 56.8779 394.645C62.7145 398.073 67.8345 397.595 72.2837 393.46C75.4274 399.808 80.6071 399.42 85.5539 404.768C86.2089 405.729 86.6249 406.832 86.7671 407.986C86.9094 409.14 86.7739 410.311 86.3719 411.402C85.9698 412.493 85.3129 413.473 84.4558 414.258C83.5988 415.044 82.5664 415.614 81.4446 415.919V415.919Z" fill="#2F2E41"/>
<path d="M100.374 160.342L76.8682 154.701C80.7721 146.71 81.0936 137.818 79.2187 128.374L95.2028 127.904C95.7036 139.648 97.2188 150.619 100.374 160.342Z" fill="#FFB8B8"/>
<path d="M106.834 233.263C89.723 244.923 77.6326 233.662 68.4061 216.287C69.6882 205.655 67.6123 192.932 63.7676 179.108C62.0577 173.01 62.6961 166.493 65.5567 160.843C68.4172 155.193 73.2921 150.821 79.2188 148.59V148.59L99.4339 157.052C116.599 171.043 119.977 186.199 113.538 202.183L106.834 233.263Z" fill="#6C63FF"/>
<path d="M57.5935 172.095L38.7887 181.968L72.1672 201.713L76.8115 213.169C77.1215 213.933 77.2725 214.753 77.2554 215.578C77.2382 216.403 77.0532 217.216 76.7117 217.967C76.3701 218.718 75.8792 219.392 75.2688 219.947C74.6584 220.502 73.9413 220.927 73.1613 221.196V221.196C72.2747 221.502 71.3293 221.598 70.3991 221.477C69.469 221.357 68.5794 221.022 67.8001 220.501C67.0208 219.979 66.3728 219.284 65.9069 218.47C65.4411 217.656 65.17 216.745 65.1149 215.808L64.6453 207.824L22.2217 193.824C20.7923 193.353 19.489 192.562 18.4106 191.512C17.3321 190.462 16.5066 189.18 15.9968 187.764V187.764C15.2536 185.7 15.2158 183.447 15.8892 181.359C16.5627 179.271 17.9093 177.465 19.7185 176.224L53.8325 152.82L57.5935 172.095Z" fill="#FFB8B8"/>
<path d="M76.3981 173.976C68.5553 170.539 61.4237 174.273 52.4221 177.267L51.0117 152.35C59.95 147.586 68.472 146.302 76.3981 150L76.3981 173.976Z" fill="#6C63FF"/>
<path d="M85.7798 140.246C94.0683 140.246 100.787 133.527 100.787 125.238C100.787 116.95 94.0683 110.23 85.7798 110.23C77.4914 110.23 70.7722 116.95 70.7722 125.238C70.7722 133.527 77.4914 140.246 85.7798 140.246Z" fill="#FFB8B8"/>
<path d="M103.734 123.345C88.8749 124.801 77.5526 122.371 70.3164 115.451V109.879H102.473L103.734 123.345Z" fill="#2F2E41"/>
</g>
</g>
<defs>
<clipPath id="clip0">
<rect width="500" height="500" fill="white"/>
</clipPath>
<clipPath id="clip1">
<rect width="500" height="347.876" fill="white" transform="translate(-23 76)"/>
</clipPath>
</defs>
</svg>
